<svg width="207" height="207" xmlns="http://www.w3.org/2000/svg" xmlns:xlink="http://www.w3.org/1999/xlink" overflow="hidden"><defs><clipPath id="clip0"><rect x="437" y="406" width="207" height="207"/></clipPath><clipPath id="clip1"><rect x="438" y="407" width="206" height="206"/></clipPath><clipPath id="clip2"><rect x="438" y="407" width="206" height="206"/></clipPath><clipPath id="clip3"><rect x="438" y="407" width="206" height="206"/></clipPath></defs><g clip-path="url(#clip0)" transform="translate(-437 -406)"><g clip-path="url(#clip1)"><g clip-path="url(#clip2)"><g clip-path="url(#clip3)"><path d="M501.618 510C501.618 513.346 498.905 516.059 495.559 516.059 492.213 516.059 489.5 513.346 489.5 510 489.5 506.654 492.213 503.941 495.559 503.941 498.905 503.941 501.618 506.654 501.618 510Z" stroke="#E1942F" stroke-width="0.429161" stroke-linecap="butt" stroke-linejoin="miter" stroke-miterlimit="4" stroke-opacity="1" fill="none" fill-rule="nonzero"/><path d="M514.927 542.132C514.927 545.478 512.215 548.191 508.868 548.191 505.522 548.191 502.809 545.478 502.809 542.132 502.809 538.785 505.522 536.073 508.868 536.073 512.215 536.073 514.927 538.785 514.927 542.132Z" stroke="#E1942F" stroke-width="0.429161" stroke-linecap="butt" stroke-linejoin="miter" stroke-miterlimit="4" stroke-opacity="1" fill="none" fill-rule="nonzero"/><path d="M547.059 555.441C547.059 558.787 544.346 561.5 541 561.5 537.654 561.5 534.941 558.787 534.941 555.441 534.941 552.095 537.654 549.382 541 549.382 544.346 549.382 547.059 552.095 547.059 555.441Z" stroke="#E1942F" stroke-width="0.429161" stroke-linecap="butt" stroke-linejoin="miter" stroke-miterlimit="4" stroke-opacity="1" fill="none" fill-rule="nonzero"/><path d="M579.191 542.132C579.191 545.478 576.478 548.191 573.132 548.191 569.785 548.191 567.073 545.478 567.073 542.132 567.073 538.785 569.785 536.073 573.132 536.073 576.478 536.073 579.191 538.785 579.191 542.132Z" stroke="#E1942F" stroke-width="0.429161" stroke-linecap="butt" stroke-linejoin="miter" stroke-miterlimit="4" stroke-opacity="1" fill="none" fill-rule="nonzero"/><path d="M592.5 510C592.5 513.346 589.787 516.059 586.441 516.059 583.095 516.059 580.382 513.346 580.382 510 580.382 506.654 583.095 503.941 586.441 503.941 589.787 503.941 592.5 506.654 592.5 510Z" stroke="#E1942F" stroke-width="0.429161" stroke-linecap="butt" stroke-linejoin="miter" stroke-miterlimit="4" stroke-opacity="1" fill="none" fill-rule="nonzero"/><path d="M579.191 477.868C579.191 481.215 576.478 483.927 573.132 483.927 569.785 483.927 567.073 481.215 567.073 477.868 567.073 474.522 569.785 471.809 573.132 471.809 576.478 471.809 579.191 474.522 579.191 477.868Z" stroke="#E1942F" stroke-width="0.429161" stroke-linecap="butt" stroke-linejoin="miter" stroke-miterlimit="4" stroke-opacity="1" fill="none" fill-rule="nonzero"/><path d="M547.059 464.559C547.059 467.905 544.346 470.618 541 470.618 537.654 470.618 534.941 467.905 534.941 464.559 534.941 461.213 537.654 458.5 541 458.5 544.346 458.5 547.059 461.213 547.059 464.559Z" stroke="#E1942F" stroke-width="0.429161" stroke-linecap="butt" stroke-linejoin="miter" stroke-miterlimit="4" stroke-opacity="1" fill="none" fill-rule="nonzero"/><path d="M514.927 477.868C514.927 481.215 512.215 483.927 508.868 483.927 505.522 483.927 502.809 481.215 502.809 477.868 502.809 474.522 505.522 471.809 508.868 471.809 512.215 471.809 514.927 474.522 514.927 477.868Z" stroke="#E1942F" stroke-width="0.429161" stroke-linecap="butt" stroke-linejoin="miter" stroke-miterlimit="4" stroke-opacity="1" fill="none" fill-rule="nonzero"/><path d="M524.338 510C524.338 513.346 521.626 516.059 518.279 516.059 514.933 516.059 512.221 513.346 512.221 510 512.221 506.654 514.933 503.941 518.279 503.941 521.626 503.941 524.338 506.654 524.338 510Z" stroke="#E1942F" stroke-width="0.429161" stroke-linecap="butt" stroke-linejoin="miter" stroke-miterlimit="4" stroke-opacity="1" fill="none" fill-rule="nonzero"/><path d="M530.993 526.066C530.993 529.412 528.28 532.125 524.934 532.125 521.588 532.125 518.875 529.412 518.875 526.066 518.875 522.72 521.588 520.007 524.934 520.007 528.28 520.007 530.993 522.72 530.993 526.066Z" stroke="#E1942F" stroke-width="0.429161" stroke-linecap="butt" stroke-linejoin="miter" stroke-miterlimit="4" stroke-opacity="1" fill="none" fill-rule="nonzero"/><path d="M547.059 532.721C547.059 536.067 544.346 538.779 541 538.779 537.654 538.779 534.941 536.067 534.941 532.721 534.941 529.374 537.654 526.662 541 526.662 544.346 526.662 547.059 529.374 547.059 532.721Z" stroke="#E1942F" stroke-width="0.429161" stroke-linecap="butt" stroke-linejoin="miter" stroke-miterlimit="4" stroke-opacity="1" fill="none" fill-rule="nonzero"/><path d="M563.125 526.066C563.125 529.412 560.412 532.125 557.066 532.125 553.72 532.125 551.007 529.412 551.007 526.066 551.007 522.72 553.72 520.007 557.066 520.007 560.412 520.007 563.125 522.72 563.125 526.066Z" stroke="#E1942F" stroke-width="0.429161" stroke-linecap="butt" stroke-linejoin="miter" stroke-miterlimit="4" stroke-opacity="1" fill="none" fill-rule="nonzero"/><path d="M569.779 510C569.779 513.346 567.067 516.059 563.721 516.059 560.374 516.059 557.661 513.346 557.661 510 557.661 506.654 560.374 503.941 563.721 503.941 567.067 503.941 569.779 506.654 569.779 510Z" stroke="#E1942F" stroke-width="0.429161" stroke-linecap="butt" stroke-linejoin="miter" stroke-miterlimit="4" stroke-opacity="1" fill="none" fill-rule="nonzero"/><path d="M563.125 493.934C563.125 497.28 560.412 499.993 557.066 499.993 553.72 499.993 551.007 497.28 551.007 493.934 551.007 490.588 553.72 487.875 557.066 487.875 560.412 487.875 563.125 490.588 563.125 493.934Z" stroke="#E1942F" stroke-width="0.429161" stroke-linecap="butt" stroke-linejoin="miter" stroke-miterlimit="4" stroke-opacity="1" fill="none" fill-rule="nonzero"/><path d="M547.059 487.279C547.059 490.626 544.346 493.338 541 493.338 537.654 493.338 534.941 490.626 534.941 487.279 534.941 483.933 537.654 481.221 541 481.221 544.346 481.221 547.059 483.933 547.059 487.279Z" stroke="#E1942F" stroke-width="0.429161" stroke-linecap="butt" stroke-linejoin="miter" stroke-miterlimit="4" stroke-opacity="1" fill="none" fill-rule="nonzero"/><path d="M530.993 493.934C530.993 497.28 528.28 499.993 524.934 499.993 521.588 499.993 518.875 497.28 518.875 493.934 518.875 490.588 521.588 487.875 524.934 487.875 528.28 487.875 530.993 490.588 530.993 493.934Z" stroke="#E1942F" stroke-width="0.429161" stroke-linecap="butt" stroke-linejoin="miter" stroke-miterlimit="4" stroke-opacity="1" fill="none" fill-rule="nonzero"/><path d="M547.059 510C547.059 513.346 544.346 516.059 541 516.059 537.654 516.059 534.941 513.346 534.941 510 534.941 506.654 537.654 503.941 541 503.941 544.346 503.941 547.059 506.654 547.059 510Z" stroke="#E1942F" stroke-width="0.429161" stroke-linecap="butt" stroke-linejoin="miter" stroke-miterlimit="4" stroke-opacity="1" fill="none" fill-rule="nonzero"/></g></g></g></g></svg>