<svg width="304" height="302" xmlns="http://www.w3.org/2000/svg" xmlns:xlink="http://www.w3.org/1999/xlink" overflow="hidden"><defs><clipPath id="clip0"><rect x="824" y="260" width="304" height="302"/></clipPath><clipPath id="clip1"><rect x="825" y="260" width="302" height="302"/></clipPath><clipPath id="clip2"><rect x="825" y="260" width="302" height="302"/></clipPath><clipPath id="clip3"><rect x="825" y="260" width="302" height="302"/></clipPath></defs><g clip-path="url(#clip0)" transform="translate(-824 -260)"><g clip-path="url(#clip1)"><g clip-path="url(#clip2)"><g clip-path="url(#clip3)"><path d="M1007.46 511.667C965.134 511.667 930.7 477.233 930.7 434.908 930.7 392.584 965.134 358.15 1007.46 358.15 1049.78 358.15 1084.22 392.584 1084.22 434.908 1084.22 477.233 1049.78 511.667 1007.46 511.667ZM1007.46 360.667C966.522 360.667 933.217 393.972 933.217 434.908 933.217 475.845 966.522 509.15 1007.46 509.15 1048.4 509.15 1081.7 475.845 1081.7 434.908 1081.7 393.972 1048.4 360.667 1007.46 360.667Z" fill="#E4E4E4" fill-rule="nonzero" fill-opacity="1"/><path d="M1007.46 492.792C975.541 492.792 949.575 466.825 949.575 434.908 949.575 402.991 975.541 377.025 1007.46 377.025 1039.38 377.025 1065.34 402.991 1065.34 434.908 1065.34 466.825 1039.38 492.792 1007.46 492.792ZM1007.46 379.542C976.929 379.542 952.092 404.379 952.092 434.908 952.092 465.437 976.929 490.275 1007.46 490.275 1037.99 490.275 1062.82 465.437 1062.82 434.908 1062.82 404.379 1037.99 379.542 1007.46 379.542Z" fill="#E4E4E4" fill-rule="nonzero" fill-opacity="1"/><path d="M1007.46 473.917C985.949 473.917 968.45 456.418 968.45 434.908 968.45 413.399 985.949 395.9 1007.46 395.9 1028.97 395.9 1046.47 413.399 1046.47 434.908 1046.47 456.418 1028.97 473.917 1007.46 473.917ZM1007.46 398.417C987.337 398.417 970.967 414.787 970.967 434.908 970.967 455.03 987.337 471.4 1007.46 471.4 1027.58 471.4 1043.95 455.03 1043.95 434.908 1043.95 414.787 1027.58 398.417 1007.46 398.417Z" fill="#E4E4E4" fill-rule="nonzero" fill-opacity="1"/><path d="M897.04 483.354C881.254 483.354 868.412 470.089 868.412 453.783 868.412 437.478 881.254 424.212 897.04 424.212 912.825 424.212 925.667 437.478 925.667 453.783 925.667 470.089 912.825 483.354 897.04 483.354ZM897.04 426.729C882.642 426.729 870.929 438.866 870.929 453.783 870.929 468.701 882.642 480.837 897.04 480.837 911.437 480.837 923.15 468.701 923.15 453.783 923.15 438.866 911.437 426.729 897.04 426.729Z" fill="#E1942F" fill-rule="nonzero" fill-opacity="1"/><path d="M897.04 467.625C889.407 467.625 883.198 461.416 883.198 453.783 883.198 446.151 889.407 439.942 897.04 439.942 904.672 439.942 910.881 446.151 910.881 453.783 910.881 461.416 904.672 467.625 897.04 467.625ZM897.04 442.458C890.795 442.458 885.715 447.539 885.715 453.783 885.715 460.028 890.795 465.108 897.04 465.108 903.284 465.108 908.365 460.028 908.365 453.783 908.365 447.539 903.284 442.458 897.04 442.458Z" fill="#E1942F" fill-rule="nonzero" fill-opacity="1"/><path d="M939.508 427.358C907.591 427.358 881.625 401.392 881.625 369.475 881.625 337.558 907.591 311.592 939.508 311.592 971.425 311.592 997.392 337.558 997.392 369.475 997.392 401.392 971.425 427.358 939.508 427.358ZM939.508 314.108C908.979 314.108 884.142 338.946 884.142 369.475 884.142 400.004 908.979 424.842 939.508 424.842 970.037 424.842 994.875 400.004 994.875 369.475 994.875 338.946 970.037 314.108 939.508 314.108Z" fill="#C6C6C6" fill-rule="nonzero" fill-opacity="1"/><path d="M939.508 399.046C923.203 399.046 909.938 385.78 909.938 369.475 909.938 353.17 923.203 339.904 939.508 339.904 955.814 339.904 969.079 353.17 969.079 369.475 969.079 385.78 955.814 399.046 939.508 399.046ZM939.508 342.421C924.591 342.421 912.454 354.557 912.454 369.475 912.454 384.393 924.591 396.529 939.508 396.529 954.426 396.529 966.562 384.393 966.562 369.475 966.562 354.557 954.426 342.421 939.508 342.421Z" fill="#C6C6C6" fill-rule="nonzero" fill-opacity="1"/></g></g></g></g></svg>